<svg width="20" height="18" viewBox="0 0 20 18" fill="none" xmlns="http://www.w3.org/2000/svg">
<path d="M8.65 17.15L6.925 15.575C5.15833 13.9583 3.56267 12.354 2.138 10.762C0.712667 9.17067 0 7.41667 0 5.5C0 3.93333 0.525 2.625 1.575 1.575C2.625 0.525 3.93333 0 5.5 0C6.38333 0 7.21667 0.187333 8 0.562C8.78333 0.937333 9.45 1.45 10 2.1C10.55 1.45 11.2167 0.937333 12 0.562C12.7833 0.187333 13.6167 0 14.5 0C16.0667 0 17.375 0.525 18.425 1.575C19.475 2.625 20 3.93333 20 5.5C20 7.41667 19.2917 9.175 17.875 10.775C16.4583 12.375 14.85 13.9833 13.05 15.6L11.35 17.15C10.9667 17.5 10.5167 17.675 10 17.675C9.48333 17.675 9.03333 17.5 8.65 17.15Z" fill="#FF4949"/>
</svg>
